<svg width="58.000000" height="73.000000" viewBox="0 0 58 73" fill="none" xmlns="http://www.w3.org/2000/svg" xmlns:xlink="http://www.w3.org/1999/xlink">
	<desc>
			Created with Pixso.
	</desc>
	<defs>
		<clipPath id="clip73_572">
			<rect id="logo" width="30.526314" height="30.736841" transform="translate(13.736816 13.831543)" fill="white" fill-opacity="0"/>
		</clipPath>
		<clipPath id="clip2_1181">
			<rect id="marker" width="58.000000" height="73.000000" fill="white" fill-opacity="0"/>
		</clipPath>
	</defs>
	<rect id="marker" width="58.000000" height="73.000000" fill="#FFFFFF" fill-opacity="0"/>
	<g clip-path="url(#clip2_1181)">
		<path id="Vector" d="M29 0C18.9131 0 0 7.68408 0 29.4561C0 51.228 29 73 29 73C29 73 58 51.228 58 29.4561C58 7.68408 39.0869 0 29 0Z" fill="#E01F3D" fill-opacity="1.000000" fill-rule="nonzero"/>
		<rect id="logo" width="30.526314" height="30.736841" transform="translate(13.736816 13.831543)" fill="#FFFFFF" fill-opacity="0"/>
		<g clip-path="url(#clip73_572)">
			<path id="Vector" d="M29 33.8105C31.5184 33.8105 33.5789 31.7358 33.5789 29.2002C33.5789 26.6641 31.5184 24.5894 29 24.5894C26.4816 24.5894 24.421 26.6641 24.421 29.2002C24.421 31.7358 26.4816 33.8105 29 33.8105ZM29 13.8315C27.4737 13.8315 25.871 14.062 24.421 14.5229L24.421 23.0527C27.7789 20.5166 32.5868 21.2085 35.1053 24.5894C37.6237 27.9707 36.9368 32.8115 33.5789 35.3472C30.221 37.8833 25.4131 37.1914 22.8947 33.8105C21.9026 32.5044 21.3684 30.8906 21.3684 29.2002L21.3684 15.9062C14.0421 20.1328 11.6 29.5073 15.7974 36.8843C19.9947 44.2612 29.3052 46.7197 36.6316 42.4937C43.9579 38.2671 46.4 28.8926 42.2026 21.5156C39.5316 16.7515 34.4947 13.8315 29 13.8315Z" fill="#FFFFFF" fill-opacity="1.000000" fill-rule="nonzero"/>
		</g>
	</g>
</svg>
