<svg width="0" height="0" class="hidden">
  <symbol  xmlns="http://www.w3.org/2000/svg" xmlns:xlink="http://www.w3.org/1999/xlink" viewBox="0 0 30 30" id="f">
    <desc>Created with Pixso.</desc>
    <defs>
      <clipPath id="clip24_199">
        <rect id="Frame" width="30.000000" height="30.000000"  fill-opacity="0"></rect>
      </clipPath>
      <clipPath id="clip2_1225">
        <rect id="f" width="30.000000" height="30.000000"  fill-opacity="0"></rect>
      </clipPath>
    </defs>
    <rect id="f" width="30.000000" height="30.000000"  fill-opacity="0"></rect>
    <g clip-path="url(#clip2_1225)">
      <rect id="Frame" width="30.000000" height="30.000000"  fill-opacity="0"></rect>
      <g clip-path="url(#clip24_199)">
        <path id="Vector" d="M17.4199 29.8066C17.2969 29.8242 17.168 29.8477 17.0449 29.8652C17.168 29.8418 17.291 29.8242 17.4199 29.8066Z"  
        fill-opacity="1.000000" fill-rule="nonzero"></path>
        <path id="Vector" d="M17.7188 29.7539C17.6602 29.7656 17.6016 29.7773 17.5371 29.7832C17.6016 29.7773 17.6602 29.7656 17.7188 29.7539Z" 
         fill-opacity="1.000000" fill-rule="nonzero"></path>
        <path id="Vector" d="M16.7051 29.9004C16.5586 29.918 16.4121 29.9297 16.2656 29.9414C16.4121 29.9355 16.5586 29.918 16.7051 29.9004Z"  
        fill-opacity="1.000000" fill-rule="nonzero"></path>
        <path id="Vector" d="M16.998 29.8652C16.9277 29.877 16.8574 29.8828 16.7871 29.8887C16.8516 29.8828 16.9277 29.877 16.998 29.8652Z"  
        fill-opacity="1.000000" fill-rule="nonzero"></path>
        <path id="Vector" d="M18.1289 29.6719C18.0762 29.6836 18.0234 29.6953 17.9707 29.707C18.0234 29.6953 18.0762 29.6836 18.1289 29.6719Z" 
         fill-opacity="1.000000" fill-rule="nonzero"></path>
        <path id="Vector" d="M19.1426 29.4199C19.1016 29.4316 19.0547 29.4434 19.0137 29.4551C19.0547 29.4434 19.0957 29.4316 19.1426 29.4199Z"  
        fill-opacity="1.000000" fill-rule="nonzero"></path>
        <path id="Vector" d="M18.832 29.502C18.7852 29.5137 18.7383 29.5254 18.6914 29.5371C18.7441 29.5312 18.7852 29.5195 18.832 29.502Z" 
         fill-opacity="1.000000" fill-rule="nonzero"></path>
        <path id="Vector" d="M18.4336 29.6074C18.3867 29.6191 18.334 29.6309 18.2871 29.6426C18.334 29.625 18.3867 29.6133 18.4336 29.6074Z"  
        fill-opacity="1.000000" fill-rule="nonzero"></path>
        <path id="Vector" d="M16.2598 29.9473C16.1836 29.9531 16.1016 29.959 16.0254 29.9648C16.1016 29.959 16.1836 29.9531 16.2598 29.9473Z"  
        fill-opacity="1.000000" fill-rule="nonzero"></path>
        <path id="Vector" d="M30 15C30 6.71484 23.2852 0 15 0C6.71484 0 0 6.71484 0 15C0 23.2852 6.71484 30 15 30C15.0879 30 15.1758 30 15.2637 29.9941L15.2637 18.3223L12.041 18.3223L12.041 14.5664L15.2637 14.5664L15.2637 11.8008C15.2637 8.5957 17.2207 6.84961 20.0801 6.84961C21.4512 6.84961 22.6289 6.94922 22.9688 6.99609L22.9688 10.3477L21 10.3477C19.4473 10.3477 19.1426 11.0859 19.1426 12.1699L19.1426 14.5605L22.8633 14.5605L22.377 18.3164L19.1426 18.3164L19.1426 29.4199C25.4121 27.6211 30 21.8496 30 15Z"  
        fill-opacity="1.000000" fill-rule="nonzero"></path>
        <path id="Vector" d="M15.9902 29.9648C15.832 29.9766 15.6797 29.9824 15.5215 29.9883C15.6797 29.9824 15.832 29.9766 15.9902 29.9648Z"  
        fill-opacity="1.000000" fill-rule="nonzero"></path>
        <path id="Vector" d="M15.5156 29.9883C15.4336 29.9883 15.3516 29.9941 15.2695 29.9941C15.3457 29.9941 15.4277 29.9941 15.5156 29.9883Z"  
        fill-opacity="1.000000" fill-rule="nonzero"></path>
      </g>
    </g>
  </symbol>
  <symbol  xmlns="http://www.w3.org/2000/svg" xmlns:xlink="http://www.w3.org/1999/xlink" viewBox="0 0 30 30" id="vk">
    <desc>Created with Pixso.</desc>
    <defs>
      <clipPath id="clip24_228">
        <rect id="Frame" width="30.000000" height="30.000000"  fill-opacity="0"></rect>
      </clipPath>
      <clipPath id="clip2_1228">
        <rect id="vk" width="30.000000" height="30.000000"  fill-opacity="0"></rect>
      </clipPath>
    </defs>
    <rect id="vk" width="30.000000" height="30.000000"  fill-opacity="0"></rect>
    <g clip-path="url(#clip2_1228)">
      <rect id="Frame" width="30.000000" height="30.000000"  fill-opacity="0"></rect>
      <g clip-path="url(#clip24_228)">
        <path id="Vector" d="M15 0C6.7178 0 0 6.71777 0 15C0 23.2822 6.7178 30 15 30C23.2822 30 30 23.2822 30 15C30 6.71777 23.2822 0 15 0ZM22.6074 16.626C23.3129 17.3008 24.0491 17.9448 24.6626 18.7114C24.9387 19.0493 25.2147 19.3867 25.3988 19.7852C25.6748 20.3374 25.4294 20.9507 24.9387 20.9814L21.8712 20.9814C21.0736 21.043 20.4601 20.7363 19.908 20.1841C19.4785 19.7544 19.0797 19.2944 18.681 18.8345C18.5276 18.6504 18.3436 18.4663 18.1288 18.3438C17.6994 18.0674 17.3313 18.1597 17.1166 18.5889C16.8712 19.0493 16.8098 19.54 16.7791 20.0308C16.7485 20.7671 16.5338 20.9507 15.7975 20.9814C14.2331 21.043 12.7607 20.8281 11.411 20.0308C10.2147 19.3252 9.26379 18.374 8.46625 17.27C6.87115 15.1226 5.67484 12.7607 4.57056 10.3374C4.32516 9.78516 4.50922 9.50928 5.12271 9.47852C6.13498 9.44775 7.11658 9.44775 8.12885 9.47852C8.52762 9.47852 8.80368 9.72412 8.95706 10.0918C9.50922 11.4111 10.1534 12.6992 10.9816 13.8652C11.1963 14.1719 11.4417 14.4785 11.7485 14.7241C12.1166 14.9692 12.362 14.8774 12.546 14.4785C12.638 14.2329 12.6994 13.957 12.7301 13.6812C12.8221 12.7607 12.8221 11.8403 12.6687 10.9204C12.5767 10.3066 12.2699 9.93848 11.6871 9.81592C11.3804 9.75439 11.4417 9.6626 11.5644 9.47852C11.8098 9.20264 12.0552 9.01855 12.5154 9.01855L15.9816 9.01855C16.5338 9.14111 16.6564 9.35596 16.7178 9.9082L16.7178 13.7729C16.7178 13.9878 16.8098 14.6318 17.2086 14.7544C17.5154 14.8467 17.7301 14.6011 17.9141 14.417C18.7423 13.5278 19.3252 12.4849 19.8773 11.4111C20.1227 10.9204 20.3068 10.4297 20.5215 9.93848C20.6748 9.57031 20.8896 9.38672 21.319 9.38672L24.6626 9.38672C24.7546 9.38672 24.8466 9.38672 24.9693 9.41699C25.5215 9.50928 25.6748 9.75439 25.5215 10.3066C25.2454 11.1655 24.7239 11.9019 24.2025 12.6074C23.6503 13.374 23.0368 14.1104 22.4846 14.9082C21.9325 15.644 21.9632 16.0122 22.6074 16.626Z"  fill-opacity="1.000000" fill-rule="nonzero"></path>
      </g>
    </g>
  </symbol>
  <symbol  xmlns="http://www.w3.org/2000/svg" xmlns:xlink="http://www.w3.org/1999/xlink" viewBox="0 0 30 30" id="in">
    <desc>Created with Pixso.</desc>
    <defs>
      <clipPath id="clip24_178">
        <rect id="Frame" width="30.000000" height="30.000000"  fill-opacity="0"></rect>
      </clipPath>
      <clipPath id="clip2_1222">
        <rect id="in" width="30.000000" height="30.000000"  fill-opacity="0"></rect>
      </clipPath>
    </defs>
    <rect id="in" width="30.000000" height="30.000000"  fill-opacity="0"></rect>
    <g clip-path="url(#clip2_1222)">
      <rect id="Frame" width="30.000000" height="30.000000"  fill-opacity="0"></rect>
      <g clip-path="url(#clip24_178)">
        <path id="Vector" d="M17.8711 15C17.8711 16.5879 16.5879 17.8711 15 17.8711C13.4121 17.8711 12.1289 16.5879 12.1289 15C12.1289 13.4121 13.4121 12.1289 15 12.1289C16.5879 12.1289 17.8711 13.4121 17.8711 15Z"  fill-opacity="1.000000" fill-rule="nonzero"></path>
        <path id="Vector" d="M21.7148 9.91992C21.5742 9.54492 21.3574 9.20508 21.0703 8.92969C20.7949 8.64258 20.4551 8.42578 20.0801 8.28516C19.7754 8.16797 19.3184 8.02734 18.4805 7.98633C17.5723 7.94531 17.2969 7.93359 15 7.93359C12.6973 7.93359 12.4277 7.93945 11.5195 7.98633C10.6816 8.02734 10.2246 8.16797 9.91992 8.28516C9.54492 8.42578 9.20508 8.64258 8.92969 8.92969C8.64258 9.20508 8.42578 9.54492 8.28516 9.91992C8.16797 10.2246 8.02734 10.6816 7.98633 11.5195C7.94531 12.4277 7.93359 12.6973 7.93359 15C7.93359 17.2969 7.94531 17.5723 7.98633 18.4805C8.02734 19.3184 8.16211 19.7754 8.28516 20.0801C8.42578 20.4551 8.64258 20.7949 8.92969 21.0703C9.20508 21.3574 9.54492 21.5742 9.91992 21.7148C10.2246 21.832 10.6816 21.9727 11.5195 22.0137C12.4277 22.0547 12.6973 22.0664 15 22.0664C17.3027 22.0664 17.5723 22.0605 18.4805 22.0137C19.3184 21.9727 19.7754 21.8379 20.0801 21.7148C20.8301 21.4277 21.4277 20.8301 21.7148 20.0801C21.832 19.7754 21.9727 19.3184 22.0137 18.4805C22.0547 17.5723 22.0664 17.2969 22.0664 15C22.0664 12.6973 22.0605 12.4277 22.0137 11.5195C21.9727 10.6816 21.832 10.2246 21.7148 9.91992ZM15 19.4238C12.5566 19.4238 10.5762 17.4434 10.5762 15C10.5762 12.5566 12.5566 10.5762 15 10.5762C17.4434 10.5762 19.4238 12.5566 19.4238 15C19.4238 17.4434 17.4434 19.4238 15 19.4238ZM19.5996 11.4375C19.0312 11.4375 18.5684 10.9746 18.5684 10.4062C18.5684 9.83789 19.0312 9.375 19.5996 9.375C20.168 9.375 20.6309 9.83789 20.6309 10.4062C20.6309 10.9746 20.168 11.4375 19.5996 11.4375Z"  fill-opacity="1.000000" fill-rule="nonzero"></path>
        <path id="Vector" d="M15 0C6.71484 0 0 6.71484 0 15C0 23.2852 6.71484 30 15 30C23.2852 30 30 23.2852 30 15C30 6.71484 23.2852 0 15 0ZM23.5605 18.5508C23.5195 19.4648 23.373 20.0918 23.1621 20.6426C22.7168 21.7969 21.8027 22.7168 20.6426 23.1621C20.0977 23.373 19.4707 23.5195 18.5508 23.5605C17.6309 23.6016 17.3379 23.6133 15 23.6133C12.6621 23.6133 12.3691 23.6016 11.4492 23.5605C10.5352 23.5195 9.9082 23.373 9.35742 23.1621C8.7832 22.9453 8.26172 22.6055 7.83398 22.166C7.39453 21.7383 7.05469 21.2168 6.83789 20.6426C6.62695 20.0977 6.48047 19.4707 6.43945 18.5508C6.39844 17.6309 6.38672 17.3379 6.38672 15C6.38672 12.6621 6.39844 12.3691 6.43945 11.4492C6.48047 10.5352 6.62695 9.9082 6.83789 9.35742C7.05469 8.7832 7.39453 8.26172 7.83398 7.83398C8.26172 7.39453 8.7832 7.05469 9.35742 6.83789C9.9082 6.62695 10.5293 6.48047 11.4492 6.43945C12.3691 6.39844 12.6621 6.38672 15 6.38672C17.3379 6.38672 17.6309 6.39844 18.5508 6.43945C19.4648 6.48047 20.0918 6.62695 20.6426 6.83789C21.2168 7.05469 21.7383 7.39453 22.166 7.83398C22.6055 8.26172 22.9453 8.7832 23.1621 9.35742C23.373 9.9082 23.5195 10.5293 23.5605 11.4492C23.6016 12.3691 23.6133 12.6621 23.6133 15C23.6133 17.3379 23.6016 17.6309 23.5605 18.5508Z"  fill-opacity="1.000000" fill-rule="nonzero"></path>
      </g>
    </g>
  </symbol>
  <symbol  xmlns="http://www.w3.org/2000/svg" xmlns:xlink="http://www.w3.org/1999/xlink" viewBox="0 0 30 30" id="tv">
    <desc>Created with Pixso.</desc>
    <defs>
      <clipPath id="clip24_166">
        <rect id="Frame" width="30.000000" height="30.000000" fill-opacity="0"></rect>
      </clipPath>
      <clipPath id="clip2_1219">
        <rect id="tv" width="30.000000" height="30.000000"  fill-opacity="0"></rect>
      </clipPath>
    </defs>
    <rect id="tv" width="30.000000" height="30.000000"  fill-opacity="0"></rect>
    <g clip-path="url(#clip2_1219)">
      <rect id="Frame" width="30.000000" height="30.000000"  fill-opacity="0"></rect>
      <g clip-path="url(#clip24_166)">
        <path id="Vector" d="M15 30C23.2852 30 30 23.2852 30 15C30 6.71484 23.2852 0 15 0C6.71484 0 0 6.71484 0 15C0 23.2852 6.71484 30 15 30ZM6.86133 14.6777L21.3281 9.09961C22.002 8.85938 22.5879 9.26367 22.3652 10.2773L19.9043 21.8789C19.7227 22.6992 19.2305 22.9043 18.5508 22.5117L14.8008 19.7461L12.9902 21.4863C12.791 21.6855 12.6211 21.8555 12.2344 21.8555L12.498 18.041L19.4531 11.7656C19.7578 11.502 19.3828 11.3496 18.9844 11.6133L10.3945 17.0215L6.69141 15.8672C5.88867 15.6094 5.87109 15.0645 6.86133 14.6777Z"  fill-opacity="1.000000" fill-rule="nonzero"></path>
      </g>
    </g>
  </symbol>
    <symbol  xmlns="http://www.w3.org/2000/svg" xmlns:xlink="http://www.w3.org/1999/xlink" viewBox="0 0 12 12" id="phone">
    <desc>Created with Pixso.</desc>
    <defs>
      <clipPath id="clip4_1058">
        <rect id="phone" width="12.000000" height="12.000000"  fill-opacity="0"></rect>
      </clipPath>
    </defs>
    <rect id="phone" width="12.000000" height="12.000000"  fill-opacity="0"></rect>
    <g clip-path="url(#clip4_1058)">
      <path id="Vector" d="M11.9741 9.29785C11.9401 9.19531 11.7242 9.04492 11.3264 8.84619C11.2186 8.78369 11.0651 8.69824 10.8664 8.59033C10.6675 8.48242 10.487 8.38281 10.3252 8.29199C10.163 8.20117 10.0111 8.11328 9.86917 8.02783C9.8465 8.01123 9.77548 7.96143 9.65616 7.87891C9.53674 7.79639 9.436 7.73535 9.35349 7.69531C9.27112 7.65576 9.19009 7.63574 9.11057 7.63574C8.99695 7.63574 8.85504 7.7168 8.68463 7.87891C8.51425 8.04102 8.35794 8.2168 8.21597 8.40723C8.07397 8.59766 7.9234 8.77393 7.76447 8.93555C7.60529 9.09766 7.47452 9.17871 7.37238 9.17871C7.32108 9.17871 7.25714 9.16455 7.18051 9.13623C7.10391 9.10791 7.04565 9.0835 7.00565 9.06396C6.966 9.04395 6.89798 9.00391 6.80133 8.94434C6.7045 8.88477 6.65063 8.85205 6.63928 8.84619C5.86093 8.41406 5.19336 7.91992 4.63651 7.36328C4.0798 6.80615 3.58542 6.13867 3.15363 5.36035C3.14795 5.34912 3.1152 5.29492 3.0556 5.19873C2.99591 5.10205 2.95612 5.03369 2.93622 4.99414C2.91635 4.9541 2.89221 4.896 2.86383 4.81934C2.83548 4.74268 2.82123 4.67871 2.82123 4.62744C2.82123 4.52539 2.90222 4.39453 3.06418 4.23535C3.22607 4.07617 3.40225 3.92578 3.59253 3.78369C3.78296 3.64209 3.95895 3.48535 4.12091 3.31494C4.28284 3.14453 4.3638 3.00293 4.3638 2.88916C4.3638 2.80957 4.3439 2.72852 4.30417 2.646C4.2644 2.56348 4.20334 2.46289 4.12091 2.34375C4.03848 2.22412 3.98877 2.15332 3.97171 2.13037C3.88657 1.98877 3.79858 1.83643 3.70758 1.6748C3.61655 1.5127 3.51721 1.33203 3.40921 1.1333C3.3013 0.93457 3.21613 0.78125 3.15356 0.67334C2.95483 0.275391 2.80429 0.0595703 2.702 0.0258789C2.6622 0.00878906 2.60251 0 2.52304 0C2.36954 0 2.16931 0.0283203 1.92215 0.0854492C1.67493 0.14209 1.48041 0.20166 1.33835 0.26416C1.05426 0.383301 0.753143 0.72998 0.434937 1.30371C0.145172 1.83789 0.000305176 2.36621 0.000305176 2.88916C0.000305176 3.04248 0.0102539 3.19141 0.0301208 3.33643C0.0500183 3.48145 0.0855408 3.64453 0.136719 3.82666C0.187836 4.0083 0.229065 4.14355 0.260223 4.23145C0.291412 4.31934 0.34964 4.47705 0.434906 4.7041C0.52005 4.93164 0.571228 5.0708 0.588287 5.12158C0.787109 5.67871 1.02292 6.17578 1.29559 6.61328C1.74426 7.34033 2.35654 8.09229 3.13205 8.86768C3.90759 9.64307 4.65903 10.2554 5.38629 10.7041C5.82376 10.9771 6.32104 11.2129 6.87781 11.4116C6.92896 11.4287 7.06808 11.4795 7.29529 11.5649C7.52258 11.6504 7.68027 11.7085 7.76828 11.7397C7.85632 11.771 7.99139 11.8125 8.17303 11.8638C8.35507 11.9146 8.51828 11.9502 8.66315 11.9702C8.80811 11.9897 8.95728 12 9.1106 12C9.63321 12 10.1617 11.855 10.6958 11.5654C11.2695 11.2471 11.616 10.9463 11.7353 10.6616C11.7981 10.52 11.8575 10.3252 11.9143 10.0781C11.9713 9.83105 11.9996 9.63086 11.9996 9.47705C11.9998 9.39746 11.9912 9.33789 11.9741 9.29785Z"  fill-opacity="1.000000" fill-rule="nonzero"></path>
    </g>
  </symbol>

 <symbol fill="none" xmlns="http://www.w3.org/2000/svg" xmlns:xlink="http://www.w3.org/1999/xlink" viewBox="0 0 39.9707 39.9854" id="logo">
    <desc>Created with Pixso.</desc>
    <defs></defs>
    <path id="Vector" d="M19.9854 26C23.2854 26 25.9854 23.3 25.9854 20C25.9854 16.7 23.2854 14 19.9854 14C16.6854 14 13.9854 16.7 13.9854 20C13.9854 23.3 16.6854 26 19.9854 26ZM19.9854 0C17.9854 0 15.8854 0.300003 13.9854 0.899994L13.9854 12C18.3854 8.7 24.6854 9.60001 27.9854 14C31.2854 18.4 30.3854 24.7 25.9854 28C21.5854 31.3 15.2854 30.4 11.9854 26C10.6854 24.3 9.98538 22.2 9.98538 20L9.98538 2.7C0.385376 8.2 -2.81464 20.4 2.68536 30C8.18536 39.6 20.3854 42.8 29.9854 37.3C39.5854 31.8 42.7854 19.6 37.2854 10C33.7854 3.8 27.1854 0 19.9854 0Z" fill="#E01F3D" fill-opacity="1.000000" fill-rule="nonzero"></path>
  </symbol>

 <symbol fill="none" xmlns="http://www.w3.org/2000/svg" xmlns:xlink="http://www.w3.org/1999/xlink" viewBox="0 0 41 41" id="main-2">
    <desc>Created with Pixso.</desc>
    <defs>
      <clipPath id="clip93_289">
        <rect id="charging 1" width="37.846153" height="37.846153" transform="translate(1.576904 1.576904)" fill="white" fill-opacity="0"></rect>
      </clipPath>
      <clipPath id="clip93_288">
        <rect id="main-2" width="41.000000" height="41.000000" fill="white" fill-opacity="0"></rect>
      </clipPath>
    </defs>
    <rect id="main-2" width="41.000000" height="41.000000" fill="#FFFFFF" fill-opacity="0"></rect>
    <g clip-path="url(#clip93_288)">
      <rect id="charging 1" width="37.846153" height="37.846153" transform="translate(1.576904 1.576904)" fill="#FFFFFF" fill-opacity="0"></rect>
      <g clip-path="url(#clip93_289)">
        <path id="Vector" d="M27.031 4.73071L13.9691 4.73071C12.527 4.73071 11.3539 5.90381 11.3539 7.34586L11.3539 36.8078C11.3539 38.2499 12.527 39.423 13.9691 39.423L27.0311 39.423C28.4731 39.423 29.6462 38.2499 29.6462 36.8078L29.6462 7.34595C29.6462 5.90381 28.4731 4.73071 27.031 4.73071ZM28.3846 36.8079C28.3846 37.5541 27.7772 38.1616 27.031 38.1616L13.9691 38.1616C13.2228 38.1616 12.6154 37.5541 12.6154 36.8079L12.6154 7.34595C12.6154 6.59973 13.2228 5.99231 13.9691 5.99231L27.0311 5.99231C27.7773 5.99231 28.3847 6.59973 28.3847 7.34595L28.3847 36.8079L28.3846 36.8079Z" fill="#000000" fill-opacity="1.000000" fill-rule="nonzero"></path>
        <path id="Vector" d="M23.9693 1.5769L17.0308 1.5769C16.6825 1.5769 16.4 1.85938 16.4 2.2077L16.4 5.36151C16.4 5.70987 16.6825 5.99231 17.0308 5.99231L23.9693 5.99231C24.3176 5.99231 24.6001 5.70987 24.6001 5.36151L24.6001 2.2077C24.6 1.85938 24.3176 1.5769 23.9693 1.5769ZM23.3385 4.73071L17.6615 4.73071L17.6615 2.83841L23.3385 2.83841L23.3385 4.73071Z" fill="#000000" fill-opacity="1.000000" fill-rule="nonzero"></path>
        <path id="Vector" d="M25.1319 18.8996C25.0161 18.7174 24.8155 18.6075 24.6 18.6075L20.8154 18.6075L20.8154 12.9306C20.8154 12.6349 20.6099 12.379 20.3213 12.3149C20.0301 12.2512 19.738 12.396 19.613 12.6639L15.1976 22.1254C15.1065 22.3207 15.1215 22.5494 15.2373 22.731C15.3531 22.9131 15.5537 23.0231 15.7692 23.0231L19.5538 23.0231L19.5538 28.7C19.5538 28.9957 19.7593 29.2516 20.0479 29.3156C20.0938 29.3259 20.1396 29.3308 20.1849 29.3308C20.4257 29.3308 20.6509 29.1922 20.7562 28.9667L25.1716 19.5051C25.2627 19.3099 25.2477 19.0812 25.1319 18.8996ZM19.5538 21.7615L16.7597 21.7615L19.5538 15.7737L19.5538 21.7615ZM20.8154 25.8569L20.8154 19.8692L23.6095 19.8692L20.8154 25.8569Z" fill="#000000" fill-opacity="1.000000" fill-rule="nonzero"></path>
      </g>
    </g>
  </symbol>
  <symbol fill="none" xmlns="http://www.w3.org/2000/svg" xmlns:xlink="http://www.w3.org/1999/xlink" viewBox="0 0 41 41" id="main-1">
    <desc>Created with Pixso.</desc>
    <defs>
      <clipPath id="clip93_277">
        <rect id="noise 1" width="39.423080" height="39.346230" transform="translate(0.788452 0.788452)" fill="white" fill-opacity="0"></rect>
      </clipPath>
      <clipPath id="clip93_276">
        <rect id="main-1" width="41.000000" height="41.000000" fill="white" fill-opacity="0"></rect>
      </clipPath>
    </defs>
    <rect id="main-1" width="41.000000" height="41.000000" fill="#FFFFFF" fill-opacity="0"></rect>
    <g clip-path="url(#clip93_276)">
      <rect id="noise 1" width="39.423080" height="39.346230" transform="translate(0.788452 0.788452)" fill="#FFFFFF" fill-opacity="0"></rect>
      <g clip-path="url(#clip93_277)">
        <path id="Shape" d="M12.5923 0.788452C6.0838 0.788452 0.788452 6.52515 0.788452 13.6081C0.813507 15.2504 1.26379 16.8582 2.0954 18.2746C2.48837 18.9449 2.82486 19.6469 3.10135 20.373C3.28473 20.9068 3.10873 21.498 2.6633 21.8446C1.88834 22.4641 1.43927 23.4041 1.44421 24.3962C1.4411 25.4864 1.9801 26.5069 2.88232 27.119C3.2067 27.3393 3.40399 27.7033 3.41153 28.0954L3.41153 33.577C3.41153 37.1929 6.05887 40.1347 9.31348 40.1347C12.5681 40.1347 15.2154 37.1929 15.2154 33.577C15.2054 30.8762 16.3799 28.3068 18.4287 26.5471C22.2694 23.3425 24.4615 18.5777 24.3962 13.576C24.3962 6.52515 19.1008 0.788452 12.5923 0.788452ZM17.5762 25.551C15.2357 27.5594 13.8935 30.493 13.9039 33.577C13.9039 36.4696 11.8441 38.8232 9.31348 38.8232C6.78284 38.8232 4.72308 36.4696 4.72308 33.577L4.72308 28.0954C4.71246 27.2832 4.3139 26.5251 3.65088 26.0559C3.09064 25.69 2.75372 25.0653 2.75577 24.3962C2.75125 23.793 3.02756 23.222 3.50336 22.8512C4.37643 22.1517 4.70981 20.9754 4.33356 19.9219C4.03152 19.1275 3.66367 18.3598 3.23383 17.6267C2.51114 16.3976 2.12042 15.0016 2.10001 13.576C2.10001 7.24844 6.80713 2.10001 12.5923 2.10001C18.3775 2.10001 23.0847 7.24844 23.0847 13.576C23.1447 18.1933 21.1213 22.592 17.5762 25.551Z" fill="#000000" fill-opacity="1.000000" fill-rule="nonzero"></path>
        <path id="Shape" d="M12.5923 4.06732C8.93771 4.06732 5.82147 6.65894 4.61157 10.2814C4.60306 10.303 4.59717 10.324 4.59061 10.347C4.24484 11.3989 4.06778 12.4989 4.06598 13.6062C4.06598 14.3931 4.06598 16.7998 5.56967 18.3034C5.82697 18.552 6.23599 18.5484 6.48892 18.2954C6.74188 18.0425 6.74545 17.6335 6.49692 17.3762C5.95816 16.7773 5.61221 16.0301 5.50409 15.2318C5.60965 15.2253 5.71393 15.2167 5.82346 15.2167C8.83344 15.2154 11.2808 17.9697 11.2808 21.3534C11.2808 21.6675 11.2657 21.9626 11.2414 22.2538C10.9149 22.6024 10.5676 22.9309 10.2014 23.2375C8.29138 24.8016 7.23279 27.1763 7.34613 29.6424C7.34613 30.0045 7.63974 30.2981 8.00192 30.2981C8.36407 30.2981 8.65768 30.0045 8.65768 29.6424C8.54486 27.5631 9.43359 25.5553 11.0486 24.2408C13.3623 22.465 14.6711 19.6775 14.5596 16.763C14.5596 12.6579 11.4709 9.31348 7.67404 9.31348C7.23785 9.31464 6.80295 9.36078 6.37625 9.4512C7.51611 7.03152 9.91876 5.45749 12.5923 5.37888C16.5695 5.37888 19.8058 9.06888 19.8058 13.6049C19.8573 17.1782 18.3076 20.5872 15.5813 22.8978C15.4908 22.9758 15.3905 23.0598 15.2816 23.1509C13.9767 24.2355 11.2624 26.4953 10.6289 32.1933C10.5906 32.5524 10.8498 32.8748 11.2086 32.9147C11.2325 32.9182 11.2566 32.9203 11.2808 32.9212C11.6148 32.9209 11.8952 32.6696 11.9319 32.3376C12.507 27.1635 14.8567 25.2087 16.1197 24.1588C16.2358 24.0618 16.3427 23.9726 16.4384 23.89C19.4567 21.3331 21.1731 17.5602 21.1173 13.6049C21.1173 8.34558 17.2929 4.06732 12.5923 4.06732ZM7.67404 10.625C10.7476 10.625 13.2481 13.3793 13.2481 16.763C13.2778 18.0039 13.0314 19.2358 12.5267 20.3698C12.0867 16.7237 9.25247 13.9039 5.82477 13.9039C5.67328 13.9039 5.52768 13.915 5.38147 13.9255C5.38147 13.7996 5.38147 13.6901 5.38147 13.6049C5.38168 12.7279 5.50711 11.8554 5.75394 11.0139C6.362 10.7588 7.01459 10.6266 7.67404 10.625Z" fill="#000000" fill-opacity="1.000000" fill-rule="nonzero"></path>
        <path id="Shape" d="M33.577 15.8712C33.6273 13.8044 34.5038 11.8439 36.0106 10.4283C36.1936 10.2657 36.2708 10.0148 36.2109 9.77747C36.151 9.54013 35.9639 9.3559 35.7256 9.29971C35.4874 9.2435 35.2377 9.32468 35.078 9.51019C33.3267 11.1684 32.3135 13.4598 32.2654 15.8712C32.3135 18.2825 33.3267 20.5739 35.078 22.2321C35.2377 22.4177 35.4874 22.4988 35.7256 22.4426C35.9639 22.3864 36.151 22.2022 36.2109 21.9649C36.2708 21.7275 36.1936 21.4766 36.0106 21.3141C34.5038 19.8984 33.6273 17.938 33.577 15.8712Z" fill="#000000" fill-opacity="1.000000" fill-rule="nonzero"></path>
        <path id="Shape" d="M37.9477 12.1025C37.8177 11.9868 37.6472 11.9275 37.4735 11.9376C37.2999 11.9477 37.1374 12.0263 37.0217 12.1562C35.0519 14.2412 35.0519 17.5012 37.0217 19.5862C37.1775 19.7611 37.4149 19.8398 37.6443 19.7923C37.8738 19.7449 38.0605 19.5787 38.1342 19.3562C38.2078 19.1338 38.1572 18.889 38.0014 18.714C36.474 17.1266 36.474 14.6158 38.0014 13.0284C38.1171 12.8985 38.1765 12.728 38.1664 12.5543C38.1563 12.3807 38.0776 12.2181 37.9477 12.1025Z" fill="#000000" fill-opacity="1.000000" fill-rule="nonzero"></path>
        <path id="Shape" d="M39.9661 14.1209C39.7238 13.8519 39.3093 13.8302 39.0402 14.0724C38.489 14.5066 38.1674 15.1696 38.1674 15.8712C38.1674 16.5728 38.489 17.2357 39.0402 17.67C39.2134 17.8322 39.4608 17.8882 39.687 17.8164C39.9133 17.7445 40.083 17.556 40.1308 17.3235C40.1786 17.091 40.0971 16.8508 39.9176 16.6955C39.6634 16.4935 39.5045 16.1949 39.4789 15.8712C39.5045 15.5475 39.6634 15.2489 39.9176 15.0469C40.1866 14.8046 40.2083 14.39 39.9661 14.1209Z" fill="#000000" fill-opacity="1.000000" fill-rule="nonzero"></path>
        <path id="Shape" d="M30.2982 15.8712C30.2982 12.9858 31.5907 10.1974 34.036 7.8157C34.2038 7.6517 34.2713 7.41068 34.2131 7.18341C34.155 6.95612 33.98 6.77713 33.7541 6.71387C33.5282 6.6506 33.2857 6.71265 33.118 6.87665C30.4162 9.51022 28.9866 12.6205 28.9866 15.8712C28.9866 19.1219 30.4162 22.2322 33.118 24.8658C33.3773 25.1193 33.793 25.1146 34.0465 24.8553C34.3 24.5959 34.2953 24.1802 34.036 23.9267C31.5907 21.5449 30.2982 18.7566 30.2982 15.8712Z" fill="#000000" fill-opacity="1.000000" fill-rule="nonzero"></path>
        <path id="Shape" d="M27.0193 15.8712C27.0193 12.2684 28.542 8.79803 31.4241 5.83789C31.5881 5.66992 31.6501 5.42722 31.5866 5.2012C31.5231 4.97516 31.3438 4.8002 31.1164 4.74216C30.8889 4.68411 30.6477 4.75183 30.4837 4.91983C27.3596 8.13309 25.7077 11.9202 25.7077 15.8712C25.7077 19.8222 27.3596 23.6093 30.4837 26.8225C30.7373 27.0822 31.1533 27.0872 31.413 26.8337C31.6726 26.5802 31.6776 26.1642 31.4241 25.9045C28.542 22.9443 27.0193 19.474 27.0193 15.8712Z" fill="#000000" fill-opacity="1.000000" fill-rule="nonzero"></path>
      </g>
    </g>
  </symbol>
  <symbol fill="none" xmlns="http://www.w3.org/2000/svg" xmlns:xlink="http://www.w3.org/1999/xlink" viewBox="0 0 41 41" id="main-3">
    <desc>Created with Pixso.</desc>
    <defs>
      <clipPath id="clip93_301">
        <rect id="plug 1" width="37.846153" height="37.846153" transform="translate(1.576935 1.576904)" fill="white" fill-opacity="0"></rect>
      </clipPath>
      <clipPath id="clip93_300">
        <rect id="main-3" width="41.000000" height="41.000000" fill="white" fill-opacity="0"></rect>
      </clipPath>
    </defs>
    <rect id="main-3" width="41.000000" height="41.000000" fill="#FFFFFF" fill-opacity="0"></rect>
    <g clip-path="url(#clip93_300)">
      <rect id="plug 1" width="37.846153" height="37.846153" transform="translate(1.576935 1.576904)" fill="#FFFFFF" fill-opacity="0"></rect>
      <g clip-path="url(#clip93_301)">
        <path id="Vector" d="M30.5923 9.77689L28.7 9.77689L28.7 3.46921C28.7 2.39688 27.88 1.5769 26.8077 1.5769C25.7353 1.5769 24.9154 2.39688 24.9154 3.46921L24.9154 9.77689L16.0846 9.77689L16.0846 3.46921C16.0846 2.39688 15.2647 1.5769 14.1923 1.5769C13.12 1.5769 12.3 2.39688 12.3 3.46921L12.3 9.77689L10.4077 9.77689C10.0293 9.77689 9.77698 10.0292 9.77698 10.4076L9.77698 15.2014C9.77698 18.3553 10.9754 21.383 13.1201 23.7168C15.0124 25.8614 16.0847 28.6368 16.0847 31.4753L16.0847 33.1153C16.0847 34.8814 17.4724 36.2692 19.2386 36.2692L19.8693 36.2692L19.8693 38.7922C19.8693 39.1707 20.1216 39.423 20.5001 39.423C20.8785 39.423 21.1308 39.1707 21.1308 38.7922L21.1308 36.2692L21.7616 36.2692C23.5277 36.2692 24.9154 34.8815 24.9154 33.1153L24.9154 31.5384C24.9154 28.6369 25.9247 25.9245 27.8801 23.78C30.0247 21.4461 31.2232 18.3553 31.2232 15.2015L31.2232 10.4077C31.2231 10.0292 30.9708 9.77689 30.5923 9.77689ZM26.1769 3.46921C26.1769 3.09076 26.4292 2.83847 26.8077 2.83847C27.1861 2.83847 27.4384 3.09076 27.4384 3.46921L27.4384 9.77689L26.1769 9.77689L26.1769 3.46921ZM13.5615 3.46921C13.5615 3.15381 13.8138 2.83847 14.1923 2.83847C14.5707 2.83847 14.823 3.09076 14.823 3.46921L14.823 9.77689L13.5614 9.77689L13.5614 3.46921L13.5615 3.46921ZM29.9615 15.1385C29.9615 18.04 28.9523 20.7523 26.9969 22.8969C24.8523 25.2307 23.6539 28.3215 23.6539 31.4754L23.6539 33.1154C23.6539 34.1877 22.8339 35.0077 21.7616 35.0077L19.2385 35.0077C18.1662 35.0077 17.3462 34.1877 17.3462 33.1154L17.3462 31.5385C17.3462 28.3846 16.1478 25.2939 14.0031 22.9601C12.1108 20.8154 11.0385 18.04 11.0385 15.2015L11.0385 11.0385L12.9308 11.0385L15.4538 11.0385L25.5461 11.0385L28.0692 11.0385L29.9615 11.0385L29.9615 15.1385Z" fill="#000000" fill-opacity="1.000000" fill-rule="nonzero"></path>
        <path id="Vector" d="M23.023 17.977L19.4907 17.977L22.8338 14.6339C23.0861 14.3816 23.0861 14.0031 22.8338 13.7508C22.5815 13.4984 22.2031 13.4985 21.9507 13.7508L17.5354 18.1661C17.3461 18.3553 17.2831 18.6076 17.4092 18.86C17.4722 19.1123 17.7246 19.2385 17.9769 19.2385L21.5092 19.2385L18.1661 22.5815C17.9138 22.8338 17.9138 23.2123 18.1661 23.4647C18.2923 23.5909 18.4184 23.6539 18.6076 23.6539C18.7968 23.6539 18.923 23.5909 19.0491 23.4647L23.4645 19.0493C23.6537 18.8601 23.7168 18.6078 23.5907 18.3554C23.5277 18.1031 23.2754 17.977 23.023 17.977Z" fill="#000000" fill-opacity="1.000000" fill-rule="nonzero"></path>
      </g>
    </g>
  </symbol>
 <symbol fill="none" xmlns="http://www.w3.org/2000/svg" xmlns:xlink="http://www.w3.org/1999/xlink" viewBox="0 0 68 68" id="feat-2">
    <desc>Created with Pixso.</desc>
    <defs>
      <clipPath id="clip93_316">
        <rect id="sound 1" width="52.026001" height="52.026001" transform="translate(8.000000 8.000000)" fill="white" fill-opacity="0"></rect>
      </clipPath>
    </defs>
    <rect id="feat-2" width="68.000000" height="68.000000" fill="#FFFFFF" fill-opacity="0"></rect>
    <rect id="sound 1" width="52.026001" height="52.026001" transform="translate(8.000000 8.000000)" fill="#FFFFFF" fill-opacity="0"></rect>
    <g clip-path="url(#clip93_316)">
      <path id="Vector" d="M36.404 11.413C35.428 10.861 34.273 10.879 33.314 11.457C33.268 11.484 33.224 11.516 33.184 11.55L19.634 23.013L9 23.013C8.447 23.013 8 23.46 8 24.013L8 43.013C8 43.279 8.105 43.533 8.293 43.72C8.481 43.907 8.734 44.013 9 44.013L19.61 44.008L33.153 56.448C33.203 56.494 33.257 56.534 33.314 56.568C33.806 56.865 34.351 57.014 34.896 57.014C35.413 57.013 35.929 56.88 36.404 56.612C37.403 56.048 38 55.018 38 53.857L38 14.169C38 13.008 37.403 11.978 36.404 11.413ZM36 53.857C36 54.288 35.783 54.667 35.421 54.872C35.266 54.959 34.873 55.127 34.421 54.898L21 42.569L21 38.013C21 37.46 20.553 37.013 20 37.013C19.447 37.013 19 37.46 19 38.013L19 42.009L10 42.013L10 25.013L19 25.013L19 29.013C19 29.566 19.447 30.013 20 30.013C20.553 30.013 21 29.566 21 29.013L21 24.477L34.405 13.137C34.866 12.895 35.265 13.067 35.421 13.155C35.783 13.36 36 13.739 36 14.169L36 53.857Z" fill="#000000" fill-opacity="1.000000" fill-rule="nonzero"></path>
      <path id="Vector" d="M46.797 15.066C46.274 14.889 45.706 15.169 45.528 15.692C45.351 16.2141 45.631 16.783 46.154 16.961C53.255 19.372 58.026 26.024 58.026 33.514C58.026 40.997 53.264 47.65 46.177 50.0681C45.655 50.246 45.375 50.814 45.554 51.338C45.696 51.7531 46.084 52.015 46.5 52.015C46.607 52.015 46.716 51.998 46.823 51.961C54.719 49.268 60.025 41.855 60.025 33.515C60.026 25.166 54.71 17.7531 46.797 15.066Z" fill="#000000" fill-opacity="1.000000" fill-rule="nonzero"></path>
      <path id="Vector" d="M51.026 33.513C51.026 27.541 47.017 22.211 41.277 20.551C40.744 20.4 40.193 20.703 40.039 21.235C39.886 21.765 40.191 22.32 40.723 22.473C45.612 23.886 49.027 28.426 49.027 33.513C49.027 38.6 45.612 43.14 40.723 44.553C40.192 44.706 39.886 45.261 40.039 45.791C40.166 46.229 40.565 46.514 41 46.514C41.092 46.514 41.185 46.501 41.277 46.475C47.018 44.815 51.026 39.485 51.026 33.513Z" fill="#000000" fill-opacity="1.000000" fill-rule="nonzero"></path>
    </g>
  </symbol>
  <symbol fill="none" xmlns="http://www.w3.org/2000/svg" xmlns:xlink="http://www.w3.org/1999/xlink" viewBox="0 0 68 68" id="feat-1">
    <desc>Created with Pixso.</desc>
    <defs>
      <clipPath id="clip93_310">
        <rect id="battery 1" width="60.000000" height="60.000000" transform="translate(4.000000 4.000000)" fill="white" fill-opacity="0"></rect>
      </clipPath>
    </defs>
    <rect id="feat-1" width="68.000000" height="68.000000" fill="#FFFFFF" fill-opacity="0"></rect>
    <rect id="battery 1" width="60.000000" height="60.000000" transform="translate(4.000000 4.000000)" fill="#FFFFFF" fill-opacity="0"></rect>
    <g clip-path="url(#clip93_310)">
      <path id="Vector" d="M46.536 8L40 8L40 4L28 4L28 8L21.464 8C19.554 8 18 9.55402 18 11.464L18 60.536C18 62.446 19.554 64 21.464 64L46.536 64C48.446 64 50 62.446 50 60.536L50 11.464C50 9.55402 48.446 8 46.536 8ZM20 23L48 23L48 35L20 35L20 23ZM20 37L48 37L48 49L20 49L20 37ZM30 6L38 6L38 8L30 8L30 6ZM21.464 10L28 10L40 10L46.536 10C47.344 10 48 10.656 48 11.464L48 21L20 21L20 11.464C20 10.656 20.656 10 21.464 10ZM46.536 62L21.464 62C20.656 62 20 61.344 20 60.536L20 51L48 51L48 60.536C48 61.344 47.344 62 46.536 62Z" fill="#000000" fill-opacity="1.000000" fill-rule="nonzero"></path>
    </g>
  </symbol>
  <symbol fill="none" xmlns="http://www.w3.org/2000/svg" xmlns:xlink="http://www.w3.org/1999/xlink" viewBox="0 0 68 68" id="feat-3">
    <desc>Created with Pixso.</desc>
    <defs>
      <clipPath id="clip93_325">
        <rect id="time 1" width="60.000000" height="60.000000" transform="translate(4.000000 4.000000)" fill="white" fill-opacity="0"></rect>
      </clipPath>
    </defs>
    <rect id="feat-3" width="68.000000" height="68.000000" fill="#FFFFFF" fill-opacity="0"></rect>
    <rect id="time 1" width="60.000000" height="60.000000" transform="translate(4.000000 4.000000)" fill="#FFFFFF" fill-opacity="0"></rect>
    <g clip-path="url(#clip93_325)">
      <path id="Vector" d="M35.634 41.989C36.675 41.908 37.624 41.377 38.24 40.53L47.603 27.586C47.89 27.189 47.847 26.641 47.499 26.293C47.151 25.946 46.603 25.903 46.206 26.189L33.26 35.555C32.416 36.169 31.885 37.118 31.804 38.159C31.723 39.2 32.1 40.219 32.837 40.956C33.508 41.628 34.413 42 35.354 42C35.447 42 35.54 41.996 35.634 41.989ZM33.798 38.315C33.833 37.858 34.067 37.441 34.435 37.173L42.332 31.46L36.621 39.355C36.351 39.726 35.934 39.959 35.477 39.995C35.022 40.025 34.575 39.867 34.25 39.542C33.928 39.219 33.762 38.771 33.798 38.315Z" fill="#000000" fill-opacity="1.000000" fill-rule="nonzero"></path>
      <path id="Vector" d="M58.034 23.564C58.024 23.543 58.024 23.521 58.013 23.5C58.001 23.48 57.982 23.469 57.969 23.45C56.958 21.716 55.762 20.103 54.404 18.641L56.552 16.494L57.966 17.908L62.208 13.665L57.966 9.42297L53.723 13.665L55.138 15.08L52.99 17.227C51.528 15.869 49.916 14.672 48.181 13.661C48.162 13.648 48.151 13.629 48.131 13.617C48.11 13.605 48.088 13.606 48.067 13.595C44.974 11.813 41.499 10.626 37.794 10.191L37.794 9L39.294 9C40.673 9 41.794 7.87903 41.794 6.5C41.794 5.12097 40.672 4 39.293 4L30.293 4C28.914 4 27.793 5.12097 27.793 6.5C27.793 7.87903 28.914 9 30.293 9L31.793 9L31.793 10.156C30.713 10.271 29.635 10.447 28.569 10.691C28.031 10.814 27.694 11.351 27.818 11.889C27.941 12.427 28.478 12.765 29.016 12.64C29.936 12.429 30.865 12.27 31.796 12.163L32.869 12.08C33.197 12.055 33.499 12.037 33.793 12.023L33.793 14C33.793 14.553 34.24 15 34.793 15C35.346 15 35.793 14.553 35.793 14L35.793 12.03C39.554 12.203 43.098 13.213 46.249 14.875L45.263 16.582C44.987 17.061 45.151 17.672 45.629 17.948C45.786 18.039 45.958 18.082 46.128 18.082C46.474 18.082 46.81 17.903 46.995 17.582L47.978 15.879C51.107 17.864 53.765 20.522 55.75 23.651L54.047 24.634C53.57 24.91 53.406 25.521 53.683 26C53.869 26.321 54.204 26.5 54.55 26.5C54.72 26.5 54.892 26.457 55.049 26.366L56.756 25.38C58.441 28.576 59.454 32.178 59.605 35.999L57.63 35.999C57.077 35.999 56.63 36.446 56.63 36.999C56.63 37.552 57.077 37.999 57.63 37.999L59.605 37.999C59.454 41.82 58.441 45.422 56.756 48.618L55.049 47.632C54.571 47.356 53.959 47.518 53.683 47.998C53.407 48.477 53.571 49.088 54.049 49.364L55.752 50.347C53.767 53.476 51.109 56.134 47.98 58.119L46.997 56.416C46.72 55.936 46.107 55.773 45.631 56.05C45.152 56.326 44.988 56.938 45.265 57.416L46.251 59.123C43.1 60.785 39.556 61.795 35.795 61.968L35.795 60C35.795 59.447 35.348 59 34.795 59C34.242 59 33.795 59.447 33.795 60L33.795 61.976C32.198 61.921 30.596 61.721 29.019 61.359C28.481 61.23 27.944 61.572 27.821 62.11C27.697 62.648 28.034 63.185 28.572 63.308C30.568 63.768 32.607 64 34.63 64C34.679 64 34.726 63.997 34.775 63.996C34.782 63.996 34.787 64 34.793 64C34.801 64 34.808 63.995 34.816 63.995C39.623 63.962 44.133 62.664 48.035 60.422C48.066 60.408 48.099 60.401 48.129 60.383C48.149 60.371 48.16 60.352 48.179 60.339C52.218 57.985 55.593 54.614 57.952 50.578C57.971 50.551 57.995 50.53 58.012 50.5C58.024 50.479 58.023 50.457 58.033 50.436C60.317 46.476 61.63 41.89 61.63 37C61.63 32.11 60.317 27.524 58.034 23.564ZM57.965 12.251L59.379 13.665L57.965 15.08L56.55 13.665L57.965 12.251ZM33.793 10.021L33.793 7L30.293 7C30.018 7 29.793 6.77502 29.793 6.5C29.793 6.22498 30.018 6 30.293 6L39.293 6C39.568 6 39.793 6.22498 39.793 6.5C39.793 6.77502 39.568 7 39.293 7L35.793 7L35.793 10.021C35.445 10.007 35.113 10 34.793 10C34.765 10 34.733 10.002 34.705 10.002C34.68 10.002 34.655 10 34.63 10C34.466 10 34.302 10.011 34.138 10.014C34.022 10.017 33.913 10.016 33.793 10.021Z" fill="#000000" fill-opacity="1.000000" fill-rule="nonzero"></path>
      <path id="Vector" d="M25.793 18L20.793 18C20.24 18 19.793 18.447 19.793 19C19.793 19.553 20.24 20 20.793 20L25.793 20C26.346 20 26.793 19.553 26.793 19C26.793 18.447 26.346 18 25.793 18Z" fill="#000000" fill-opacity="1.000000" fill-rule="nonzero"></path>
      <path id="Vector" d="M25.793 25L15.793 25C15.24 25 14.793 25.447 14.793 26C14.793 26.553 15.24 27 15.793 27L25.793 27C26.346 27 26.793 26.553 26.793 26C26.793 25.447 26.346 25 25.793 25Z" fill="#000000" fill-opacity="1.000000" fill-rule="nonzero"></path>
      <path id="Vector" d="M25.793 32L10.793 32C10.24 32 9.79297 32.447 9.79297 33C9.79297 33.553 10.24 34 10.793 34L25.793 34C26.346 34 26.793 33.553 26.793 33C26.793 32.447 26.346 32 25.793 32Z" fill="#000000" fill-opacity="1.000000" fill-rule="nonzero"></path>
      <path id="Vector" d="M25.793 39L6.79297 39C6.23996 39 5.79297 39.447 5.79297 40C5.79297 40.553 6.23996 41 6.79297 41L25.793 41C26.346 41 26.793 40.553 26.793 40C26.793 39.447 26.346 39 25.793 39Z" fill="#000000" fill-opacity="1.000000" fill-rule="nonzero"></path>
      <path id="Vector" d="M25.793 46L12.793 46C12.24 46 11.793 46.447 11.793 47C11.793 47.553 12.24 48 12.793 48L25.793 48C26.346 48 26.793 47.553 26.793 47C26.793 46.447 26.346 46 25.793 46Z" fill="#000000" fill-opacity="1.000000" fill-rule="nonzero"></path>
      <path id="Vector" d="M25.793 53L18.793 53C18.24 53 17.793 53.447 17.793 54C17.793 54.553 18.24 55 18.793 55L25.793 55C26.346 55 26.793 54.553 26.793 54C26.793 53.447 26.346 53 25.793 53Z" fill="#000000" fill-opacity="1.000000" fill-rule="nonzero"></path>
    </g>
  </symbol>

  <symbol fill="none" xmlns="http://www.w3.org/2000/svg" xmlns:xlink="http://www.w3.org/1999/xlink" viewBox="0 0 91 91" id="click">
    <desc>Created with Pixso.</desc>
    <defs>
      <clipPath id="clip93_412">
        <rect id="gear 1" width="42.000000" height="42.000000" transform="translate(25.000000 25.000000)" fill="white" fill-opacity="0"></rect>
      </clipPath>
    </defs>
    <rect id="Rectangle 2" rx="4.000000" width="91.000000" height="91.000000" fill="#9A9A9A" fill-opacity="1.000000"></rect>
    <rect id="gear 1" width="42.000000" height="42.000000" transform="translate(25.000000 25.000000)" fill="#FFFFFF" fill-opacity="0"></rect>
    <g clip-path="url(#clip93_412)">
      <path id="Vector" d="M46 35.1111C39.9955 35.1111 35.1111 39.9955 35.1111 46C35.1111 52.0044 39.9955 56.8889 46 56.8889C52.0044 56.8889 56.8889 52.0044 56.8889 46C56.8889 39.9955 52.0044 35.1111 46 35.1111ZM46 55.3333C40.8534 55.3333 36.6666 51.1465 36.6666 46C36.6666 40.8534 40.8534 36.6666 46 36.6666C51.1465 36.6666 55.3333 40.8534 55.3333 46C55.3333 51.1465 51.1465 55.3333 46 55.3333Z" fill="#FFFFFF" fill-opacity="1.000000" fill-rule="nonzero"></path>
      <path id="Vector" d="M64.8378 41.3334L63.2682 41.3334C62.8677 39.8462 62.2789 38.4229 61.5105 37.089L62.6195 35.9799C63.0278 35.5715 63.2527 35.0278 63.2527 34.4508C63.2527 33.8729 63.0278 33.33 62.6195 32.9209L59.0784 29.3796C58.2617 28.5637 56.8375 28.5623 56.0193 29.3796L54.9103 30.4888C53.5756 29.7211 52.153 29.1323 50.6666 28.7318L50.6666 27.1622C50.6666 25.9698 49.6968 25 48.5044 25L43.4956 25C42.3032 25 41.3334 25.9698 41.3334 27.1622L41.3334 28.7318C39.847 29.1323 38.4244 29.7211 37.089 30.4895L35.9799 29.3805C35.1625 28.5623 33.7375 28.5637 32.9209 29.3805L29.3796 32.9216C28.9713 33.33 28.7466 33.8737 28.7466 34.4515C28.7466 35.0287 28.9713 35.5715 29.3796 35.9807L30.4888 37.0897C29.7211 38.4229 29.1316 39.8462 28.7318 41.3334L27.1622 41.3334C25.9698 41.3334 25 42.3032 25 43.4956L25 48.5037C25 49.6968 25.9698 50.6666 27.1622 50.6666L28.7318 50.6666C29.1323 52.153 29.7211 53.5756 30.4895 54.911L29.3805 56.0201C28.9722 56.4285 28.7473 56.9722 28.7473 57.5492C28.7473 58.1271 28.9722 58.67 29.3805 59.0791L32.9216 62.6204C33.7383 63.4377 35.1632 63.4386 35.9807 62.6204L37.0897 61.5112C38.4252 62.2789 39.8478 62.8684 41.3341 63.269L41.3341 64.8385C41.3341 66.0309 42.304 67.0007 43.4963 67.0007L48.5044 67.0007C49.6968 67.0007 50.6666 66.0309 50.6666 64.8385L50.6666 63.269C52.153 62.8684 53.5756 62.2797 54.911 61.5112L56.0201 62.6204C56.8384 63.4386 58.2617 63.437 59.0791 62.6204L62.6204 59.0791C63.0287 58.6708 63.2534 58.1271 63.2534 57.5492C63.2534 56.9722 63.0287 56.4292 62.6204 56.0201L61.5112 54.911C62.2789 53.5756 62.8684 52.153 63.269 50.6666L64.8385 50.6666C66.0309 50.6666 67.0007 49.6968 67.0007 48.5044L67.0007 43.4956C67 42.3032 66.0302 41.3334 64.8378 41.3334ZM65.4445 48.5044C65.4445 48.8389 65.1722 49.1111 64.8378 49.1111L62.0439 49.1111L61.9041 49.7123C61.4988 51.4523 60.8159 53.1034 59.8717 54.6208L59.545 55.1451L61.5198 57.1199C61.757 57.3571 61.757 57.7421 61.5198 57.9785L57.9785 61.5198C57.7421 61.7562 57.3571 61.7578 57.1199 61.5198L55.1451 59.545L54.6208 59.8717C53.1042 60.8159 51.453 61.4995 49.7123 61.9041L49.1111 62.0439L49.1111 64.8378C49.1111 65.1722 48.8389 65.4445 48.5044 65.4445L43.4956 65.4445C43.1611 65.4445 42.8889 65.1722 42.8889 64.8378L42.8889 62.0439L42.2877 61.9041C40.5477 61.4988 38.8966 60.8159 37.3792 59.8717L36.8549 59.545L34.8801 61.5198C34.6421 61.7578 34.2571 61.7562 34.0215 61.5198L30.4802 57.9785C30.243 57.7413 30.243 57.3563 30.4802 57.1199L32.455 55.1451L32.1283 54.6208C31.1841 53.1042 30.5005 51.453 30.0959 49.7123L29.9561 49.1111L27.1622 49.1111C26.8278 49.1111 26.5555 48.8389 26.5555 48.5044L26.5555 43.4956C26.5555 43.1611 26.8278 42.8889 27.1622 42.8889L29.9561 42.8889L30.0959 42.2877C30.5012 40.547 31.1841 38.8958 32.1283 37.3792L32.455 36.8549L30.4802 34.8801C30.243 34.6429 30.243 34.2579 30.4802 34.0215L34.0215 30.4802C34.2579 30.2438 34.6429 30.2422 34.8801 30.4802L36.8549 32.455L37.3792 32.1283C38.8958 31.1841 40.547 30.5005 42.2877 30.0959L42.8889 29.9561L42.8889 27.1622C42.8889 26.8278 43.1611 26.5555 43.4956 26.5555L48.5037 26.5555C48.8389 26.5555 49.1111 26.8278 49.1111 27.1622L49.1111 29.9561L49.7123 30.0959C51.4523 30.5012 53.1034 31.1841 54.6208 32.1283L55.1451 32.455L57.1199 30.4802C57.3579 30.2422 57.7429 30.2438 57.9785 30.4802L61.5198 34.0215C61.757 34.2587 61.757 34.6437 61.5198 34.8801L59.545 36.8549L59.8717 37.3792C60.8159 38.895 61.4995 40.5463 61.9041 42.2877L62.0439 42.8889L64.8378 42.8889C65.1722 42.8889 65.4445 43.1611 65.4445 43.4956L65.4445 48.5044Z" fill="#FFFFFF" fill-opacity="1.000000" fill-rule="nonzero"></path>
      <path id="Vector" d="M46 38.2222C41.7113 38.2222 38.2222 41.7113 38.2222 46C38.2222 50.2886 41.7113 53.7777 46 53.7777C50.2886 53.7777 53.7777 50.2886 53.7777 46C53.7777 41.7113 50.2886 38.2222 46 38.2222ZM46 52.2222C42.5692 52.2222 39.7777 49.4307 39.7777 46C39.7777 42.5692 42.5692 39.7777 46 39.7777C49.4307 39.7777 52.2222 42.5692 52.2222 46C52.2222 49.4307 49.4307 52.2222 46 52.2222Z" fill="#FFFFFF" fill-opacity="1.000000" fill-rule="nonzero"></path>
    </g>
  </symbol>

  <symbol fill="none" xmlns="http://www.w3.org/2000/svg" xmlns:xlink="http://www.w3.org/1999/xlink" viewBox="0 0 32 32" id="apitherapy">
    <desc>Created with Pixso.</desc>
    <defs>
      <clipPath id="clip93_476">
        <rect id="patent 1" width="24.000000" height="24.000000" transform="translate(4.000000 4.000000)" fill="white" fill-opacity="0"></rect>
      </clipPath>
      <clipPath id="clip93_475">
        <rect id="apitherapy" width="32.000000" height="32.000000" fill="white" fill-opacity="0"></rect>
      </clipPath>
    </defs>
    <rect id="apitherapy" width="32.000000" height="32.000000" fill="#FFFFFF" fill-opacity="0"></rect>
    <g clip-path="url(#clip93_475)">
      <rect id="patent 1" width="24.000000" height="24.000000" transform="translate(4.000000 4.000000)" fill="#FFFFFF" fill-opacity="0"></rect>
      <g clip-path="url(#clip93_476)">
        <path id="Vector" d="M28 5.78125L4 5.78125L4 23.2266L18.7643 23.2266L18.7643 26.2543L21.3884 24.9725L24.0125 26.2543L24.0125 23.2266L28 23.2266L28 5.78125ZM21.3884 20.4131C20.0701 20.4131 18.9978 19.3406 18.9978 18.0225C18.9978 16.7042 20.0701 15.6318 21.3884 15.6318C22.7066 15.6318 23.7791 16.7042 23.7791 18.0225C23.7791 19.3406 22.7066 20.4131 21.3884 20.4131ZM21.3884 23.4075L20.1706 24.0022L20.1706 21.6177C20.5531 21.7477 20.9623 21.8193 21.3884 21.8193C21.8143 21.8193 22.2236 21.7477 22.6063 21.6177L22.6063 24.0022L21.3884 23.4075ZM26.5938 21.8203L24.0125 21.8203L24.0125 20.7626C24.7343 20.071 25.1853 19.0986 25.1853 18.0225C25.1853 15.9287 23.4821 14.2256 21.3884 14.2256C19.2948 14.2256 17.5916 15.9287 17.5916 18.0225C17.5916 19.0986 18.0424 20.0712 18.7643 20.7626L18.7643 21.8203L5.40625 21.8203L5.40625 7.1875L26.5938 7.1875L26.5938 21.8203Z" fill="#000000" fill-opacity="1.000000" fill-rule="nonzero"></path>
        <path id="Vector" d="M6.81415 11.4106L25.1859 11.4106L25.1859 12.8169L6.81415 12.8169L6.81415 11.4106Z" fill="#000000" fill-opacity="1.000000" fill-rule="nonzero"></path>
        <path id="Vector" d="M8.92517 8.59595L23.0748 8.59595L23.0748 10.0022L8.92517 10.0022L8.92517 8.59595Z" fill="#000000" fill-opacity="1.000000" fill-rule="nonzero"></path>
        <path id="Vector" d="M6.81415 19.0056L13.6544 19.0056L13.6544 20.4119L6.81415 20.4119L6.81415 19.0056Z" fill="#000000" fill-opacity="1.000000" fill-rule="nonzero"></path>
        <path id="Vector" d="M6.81415 16.1908L13.6544 16.1908L13.6544 17.597L6.81415 17.597L6.81415 16.1908Z" fill="#000000" fill-opacity="1.000000" fill-rule="nonzero"></path>
      </g>
    </g>
  </symbol>
  <symbol fill="none" xmlns="http://www.w3.org/2000/svg" xmlns:xlink="http://www.w3.org/1999/xlink" viewBox="0 0 32 32" id="almond">
    <desc>Created with Pixso.</desc>
    <defs>
      <clipPath id="clip93_463">
        <rect id="charger 1" width="24.000000" height="24.000000" transform="translate(4.000000 4.000000)" fill="white" fill-opacity="0"></rect>
      </clipPath>
      <clipPath id="clip93_462">
        <rect id="almond" width="32.000000" height="32.000000" fill="white" fill-opacity="0"></rect>
      </clipPath>
    </defs>
    <rect id="almond" width="32.000000" height="32.000000" fill="#FFFFFF" fill-opacity="0"></rect>
    <g clip-path="url(#clip93_462)">
      <rect id="charger 1" width="24.000000" height="24.000000" transform="translate(4.000000 4.000000)" fill="#FFFFFF" fill-opacity="0"></rect>
      <g clip-path="url(#clip93_463)">
        <path id="Vector" d="M26.08 11.2274L26.08 9.1261C26.08 8.73633 25.7639 8.42029 25.3741 8.42029L22.096 8.42029C21.7061 8.42029 21.3901 8.73633 21.3901 9.1261L21.3901 11.2274C21.0301 11.2596 20.7478 11.5618 20.7478 11.9302L20.7478 15.7258C20.7478 16.5907 21.4515 17.2943 22.3163 17.2943L23.0292 17.2943L23.0292 24.8141C23.0292 25.7924 22.233 26.5883 21.2546 26.5883L13.5383 26.5883C12.5601 26.5883 11.7642 25.7924 11.7642 24.8141L11.7642 23.2941L13.2654 23.2941C13.6552 23.2941 13.9713 22.978 13.9713 22.5883L13.9713 20.298L14.7211 20.298C15.8887 20.298 16.8387 19.348 16.8387 18.1804L16.8387 11.7782C16.8387 10.826 16.207 10.0189 15.3407 9.7533L15.3407 7.33276C15.3407 6.94287 15.0247 6.62683 14.6348 6.62683L13.647 6.62683L13.647 4.70593C13.647 4.31604 13.331 4 12.9412 4C12.5513 4 12.2353 4.31604 12.2353 4.70593L12.2353 6.62683L9.88141 6.62683L9.88141 4.70593C9.88141 4.31604 9.56537 4 9.17554 4C8.78564 4 8.4696 4.31604 8.4696 4.70593L8.4696 6.62683L7.48187 6.62683C7.09204 6.62683 6.776 6.94287 6.776 7.33276L6.776 9.7533C5.90967 10.0189 5.27795 10.826 5.27795 11.7782L5.27795 18.1804C5.27795 19.348 6.22791 20.298 7.39563 20.298L8.14539 20.298L8.14539 22.5883C8.14539 22.978 8.46143 23.2941 8.85126 23.2941L10.3525 23.2941L10.3525 24.8141C10.3525 26.5708 11.7816 28 13.5383 28L21.2546 28C23.0115 28 24.4409 26.5708 24.4409 24.8141L24.4409 17.2943L25.1535 17.2943C26.0184 17.2943 26.722 16.5907 26.722 15.7258L26.722 11.9302C26.722 11.5618 26.4398 11.2598 26.08 11.2274ZM13.9289 8.03857L13.9289 9.66052L8.18774 9.66052L8.18774 8.03857L13.9289 8.03857ZM6.6897 18.1804L6.6897 11.7782C6.6897 11.389 7.00635 11.0724 7.39557 11.0724L14.7211 11.0724C15.1103 11.0724 15.4269 11.389 15.4269 11.7782L15.4269 18.1804C15.4269 18.5696 15.1103 18.8862 14.7211 18.8862C14.4252 18.8862 7.73242 18.8862 7.39557 18.8862C7.00635 18.8862 6.6897 18.5696 6.6897 18.1804ZM9.55713 20.298L12.5595 20.298L12.5595 21.8823L9.55713 21.8823L9.55713 20.298ZM24.6682 9.83203L24.6682 11.2242L22.8019 11.2242L22.8019 9.83203L24.6682 9.83203ZM25.3103 15.7258C25.3103 15.8123 25.2399 15.8826 25.1535 15.8826C25.0671 15.8826 23.1153 15.8826 22.3163 15.8826C22.2299 15.8826 22.1595 15.8123 22.1595 15.7258L22.1595 12.636L25.3103 12.636L25.3103 15.7258Z" fill="#000000" fill-opacity="1.000000" fill-rule="nonzero"></path>
        <path id="Vector" d="M10.1638 15.6851L10.8799 15.6851L10.5677 16.4089C10.4134 16.7668 10.5785 17.1823 10.9364 17.3367C11.295 17.4911 11.71 17.3256 11.8641 16.9679L12.6011 15.2588C12.802 14.7928 12.4592 14.2734 11.9529 14.2734L11.2368 14.2734L11.5489 13.5497C11.7032 13.1917 11.5381 12.7762 11.1802 12.6219C10.8221 12.4677 10.4069 12.6327 10.2526 12.9906L9.51556 14.6997C9.31464 15.1656 9.65741 15.6851 10.1638 15.6851Z" fill="#000000" fill-opacity="1.000000" fill-rule="nonzero"></path>
      </g>
    </g>
  </symbol>
  <symbol fill="none" xmlns="http://www.w3.org/2000/svg" xmlns:xlink="http://www.w3.org/1999/xlink" viewBox="0 0 32 32" id="washing-powder">
    <desc>Created with Pixso.</desc>
    <defs>
      <clipPath id="clip93_471">
        <rect id="kg 1" width="24.000000" height="24.000000" transform="translate(4.000000 4.000000)" fill="white" fill-opacity="0"></rect>
      </clipPath>
      <clipPath id="clip93_472">
        <rect id="washing-powder" width="32.000000" height="32.000000" fill="white" fill-opacity="0"></rect>
      </clipPath>
    </defs>
    <rect id="washing-powder" width="32.000000" height="32.000000" fill="#FFFFFF" fill-opacity="0"></rect>
    <g clip-path="url(#clip93_472)">
      <rect id="kg 1" width="24.000000" height="24.000000" transform="translate(4.000000 4.000000)" fill="#FFFFFF" fill-opacity="0"></rect>
      <g clip-path="url(#clip93_471)">
        <path id="Vector" d="M24.3373 10.3997L18.9742 10.3997C19.5392 9.72266 19.88 8.85193 19.88 7.90308C19.88 5.75085 18.1292 4 15.9771 4C13.8249 4 12.074 5.75085 12.074 7.90308C12.074 8.85193 12.4148 9.72266 12.9799 10.3997L7.6167 10.3997L4.28125 28L27.6728 28L24.3373 10.3997ZM15.9771 5.40625C17.3537 5.40625 18.4738 6.52637 18.4738 7.90308C18.4738 9.27966 17.3537 10.3997 15.9771 10.3997C14.6003 10.3997 13.4803 9.27966 13.4803 7.90308C13.4803 6.52637 14.6003 5.40625 15.9771 5.40625ZM8.78143 11.8059L23.1726 11.8059L25.975 26.5938L5.979 26.5938L8.78143 11.8059Z" fill="#000000" fill-opacity="1.000000" fill-rule="nonzero"></path>
        <path id="Vector" d="M16.0055 16.4026L14.4094 16.4026L12.1779 18.631L12.1779 16.4026L11.0309 16.4026L11.0309 22.0225L12.1779 22.0225L12.1779 20.1017L12.7563 19.5377L14.5044 22.0225L15.985 22.0225L13.5753 18.7496L16.0055 16.4026Z" fill="#000000" fill-opacity="1.000000" fill-rule="nonzero"></path>
        <path id="Vector" d="M18.2747 20.0007L19.7903 20.0007L19.7903 20.6169C19.6685 20.7058 19.5026 20.793 19.2955 20.8767C19.0436 20.9786 18.7817 21.0303 18.5177 21.0303C18.2154 21.0303 17.9261 20.9626 17.6575 20.8293C17.3986 20.701 17.2063 20.5092 17.0701 20.2426C16.9294 19.9678 16.8582 19.6152 16.8582 19.1951C16.8582 18.8546 16.9186 18.5354 17.0371 18.2474C17.1041 18.0872 17.1995 17.938 17.3207 17.8035C17.4363 17.6753 17.5936 17.5691 17.7878 17.4879C17.9858 17.4053 18.2277 17.3634 18.5071 17.3634C18.7347 17.3634 18.9432 17.4028 19.1269 17.4805C19.3016 17.5542 19.4356 17.6511 19.5251 17.7681C19.6222 17.8948 19.7062 18.0775 19.7751 18.3113L19.8395 18.5302L20.8955 18.2405L20.8386 18.019C20.7417 17.6418 20.5959 17.329 20.4052 17.0886C20.2094 16.8419 19.939 16.6482 19.601 16.5127C19.2736 16.3815 18.9044 16.3149 18.5036 16.3149C17.9539 16.3149 17.4592 16.4307 17.0331 16.6588C16.5969 16.8925 16.2585 17.2534 16.028 17.7314C15.8037 18.1962 15.6902 18.7026 15.6902 19.2373C15.6902 19.7786 15.8052 20.277 16.0324 20.7185C16.2648 21.1704 16.6132 21.5203 17.0684 21.7587C17.5139 21.9922 18.0145 22.1106 18.5563 22.1106C18.9579 22.1106 19.3547 22.0376 19.7357 21.8933C20.1131 21.7506 20.4832 21.5356 20.8356 21.2546L20.9233 21.1848L20.9233 18.9271L18.2747 18.9314L18.2747 20.0007Z" fill="#000000" fill-opacity="1.000000" fill-rule="nonzero"></path>
      </g>
    </g>
  </symbol>
 <symbol fill="none" xmlns="http://www.w3.org/2000/svg" xmlns:xlink="http://www.w3.org/1999/xlink" viewBox="0 0 32 32" id="nut">
    <desc>Created with Pixso.</desc>
    <defs>
      <clipPath id="clip93_447">
        <rect id="road 1" width="24.000000" height="24.000000" transform="translate(4.000000 4.000000)" fill="white" fill-opacity="0"></rect>
      </clipPath>
      <clipPath id="clip93_446">
        <rect id="nut" width="32.000000" height="32.000000" fill="white" fill-opacity="0"></rect>
      </clipPath>
    </defs>
    <rect id="nut" width="32.000000" height="32.000000" fill="#FFFFFF" fill-opacity="0"></rect>
    <g clip-path="url(#clip93_446)">
      <rect id="road 1" width="24.000000" height="24.000000" transform="translate(4.000000 4.000000)" fill="#FFFFFF" fill-opacity="0"></rect>
      <g clip-path="url(#clip93_447)">
        <path id="Vector" d="M9.25 8.5C6.35498 8.5 4 10.855 4 13.75C4 16.444 8.21198 21.2155 8.69202 21.751C8.83447 21.9084 9.03699 22 9.25 22C9.46301 22 9.66553 21.9084 9.80798 21.751C10.288 21.2155 14.5 16.444 14.5 13.75C14.5 10.855 12.145 8.5 9.25 8.5ZM9.25 20.1055C7.612 18.163 5.5 15.181 5.5 13.75C5.5 11.683 7.18298 10 9.25 10C11.317 10 13 11.683 13 13.75C13 15.1794 10.888 18.163 9.25 20.1055Z" fill="#000000" fill-opacity="1.000000" fill-rule="nonzero"></path>
        <path id="Vector" d="M9.25 11.5C8.00952 11.5 7 12.5095 7 13.75C7 14.9905 8.00952 16 9.25 16C10.4905 16 11.5 14.9905 11.5 13.75C11.5 12.5095 10.4905 11.5 9.25 11.5ZM9.25 14.5C8.836 14.5 8.5 14.1639 8.5 13.75C8.5 13.3361 8.836 13 9.25 13C9.664 13 10 13.3361 10 13.75C10 14.1639 9.664 14.5 9.25 14.5Z" fill="#000000" fill-opacity="1.000000" fill-rule="nonzero"></path>
        <path id="Vector" d="M27.25 4L21.25 4C20.836 4 20.5 4.33606 20.5 4.75L20.5 9.25L20.5 12.25C20.5 12.6639 20.836 13 21.25 13C21.664 13 22 12.6639 22 12.25L22 10L27.25 10C27.664 10 28 9.66394 28 9.25L28 4.75C28 4.33606 27.664 4 27.25 4ZM26.5 8.5L22 8.5L22 5.5L26.5 5.5L26.5 8.5Z" fill="#000000" fill-opacity="1.000000" fill-rule="nonzero"></path>
        <path id="Vector" d="M25 20.5L17.5 20.5C16.6735 20.5 16 19.8265 16 19C16 18.1735 16.6735 17.5 17.5 17.5L19.138 17.5C19.4485 18.3715 20.2735 19 21.25 19C22.4905 19 23.5 17.9905 23.5 16.75C23.5 15.5095 22.4905 14.5 21.25 14.5C20.2735 14.5 19.4485 15.1285 19.138 16L17.5 16C15.8455 16 14.5 17.3455 14.5 19C14.5 20.6545 15.8455 22 17.5 22L25 22C25.8265 22 26.5 22.6735 26.5 23.5C26.5 24.3265 25.8265 25 25 25L11.362 25C11.0515 24.1285 10.2265 23.5 9.25 23.5C8.00952 23.5 7 24.5095 7 25.75C7 26.9905 8.00952 28 9.25 28C10.2265 28 11.0515 27.3715 11.362 26.5L25 26.5C26.6545 26.5 28 25.1545 28 23.5C28 21.8455 26.6545 20.5 25 20.5ZM21.25 16C21.664 16 22 16.3361 22 16.75C22 17.1639 21.664 17.5 21.25 17.5C20.836 17.5 20.5 17.1639 20.5 16.75C20.5 16.3361 20.836 16 21.25 16ZM9.25 26.5C8.836 26.5 8.5 26.1639 8.5 25.75C8.5 25.3361 8.836 25 9.25 25C9.664 25 10 25.3361 10 25.75C10 26.1639 9.664 26.5 9.25 26.5Z" fill="#000000" fill-opacity="1.000000" fill-rule="nonzero"></path>
      </g>
    </g>
  </symbol>
  <symbol fill="none" xmlns="http://www.w3.org/2000/svg" xmlns:xlink="http://www.w3.org/1999/xlink" viewBox="0 0 32 32" id="grape">
    <desc>Created with Pixso.</desc>
    <defs>
      <clipPath id="clip93_440">
        <rect id="bluetooth 1" width="24.000000" height="24.000000" transform="translate(4.000000 4.000000)" fill="white" fill-opacity="0"></rect>
      </clipPath>
      <clipPath id="clip93_439">
        <rect id="grape" width="32.000000" height="32.000000" fill="white" fill-opacity="0"></rect>
      </clipPath>
    </defs>
    <rect id="grape" width="32.000000" height="32.000000" fill="#FFFFFF" fill-opacity="0"></rect>
    <g clip-path="url(#clip93_439)">
      <rect id="bluetooth 1" width="24.000000" height="24.000000" transform="translate(4.000000 4.000000)" fill="#FFFFFF" fill-opacity="0"></rect>
      <g clip-path="url(#clip93_440)">
        <path id="Vector" d="M22.2053 21.5211L17.1636 16L22.2053 10.4794C22.3638 10.3055 22.4445 10.0739 22.4276 9.83899C22.4107 9.60388 22.2985 9.38586 22.1163 9.23645L15.9874 4.19592C15.7305 3.9845 15.3753 3.94019 15.0746 4.08252C14.7739 4.22424 14.5823 4.52673 14.5823 4.85925L14.5823 13.1736L11.0639 9.32043C10.7443 8.97021 10.2004 8.94556 9.85016 9.2655C9.49994 9.58533 9.47528 10.1287 9.79517 10.4791L14.5823 15.7217L14.5823 16.2784L9.79523 21.5211C9.47504 21.8711 9.49969 22.4148 9.85022 22.7349C10.2007 23.0551 10.7441 23.0304 11.064 22.6796L14.5821 18.827L14.5821 27.1409C14.5821 27.473 14.774 27.7758 15.0744 27.9178C15.1912 27.9728 15.3167 28 15.4413 28C15.6369 28 15.8305 27.9336 15.9874 27.8047L22.1163 22.764C22.2985 22.6144 22.4107 22.3964 22.4276 22.1615C22.4445 21.9266 22.3643 21.6949 22.2053 21.5211ZM16.3007 6.67834L20.326 9.98853L16.3007 14.3967L16.3007 6.67834ZM16.3007 25.3217L16.3007 17.6035L20.326 22.0115L16.3007 25.3217Z" fill="#000000" fill-opacity="1.000000" fill-rule="nonzero"></path>
      </g>
    </g>
  </symbol>


</svg>







