<svg width="30.000000" height="30.000000" viewBox="0 0 30 30" fill="none" xmlns="http://www.w3.org/2000/svg" xmlns:xlink="http://www.w3.org/1999/xlink">
	<desc>
			Created with Pixso.
	</desc>
	<defs>
		<clipPath id="clip24_228">
			<rect id="Frame" width="30.000000" height="30.000000" fill="white" fill-opacity="0"/>
		</clipPath>
		<clipPath id="clip2_1228">
			<rect id="vk" width="30.000000" height="30.000000" fill="white" fill-opacity="0"/>
		</clipPath>
	</defs>
	<rect id="vk" width="30.000000" height="30.000000" fill="#FFFFFF" fill-opacity="0"/>
	<g clip-path="url(#clip2_1228)">
		<rect id="Frame" width="30.000000" height="30.000000" fill="#FFFFFF" fill-opacity="0"/>
		<g clip-path="url(#clip24_228)">
			<path id="Vector" d="M15 0C6.7178 0 0 6.71777 0 15C0 23.2822 6.7178 30 15 30C23.2822 30 30 23.2822 30 15C30 6.71777 23.2822 0 15 0ZM22.6074 16.626C23.3129 17.3008 24.0491 17.9448 24.6626 18.7114C24.9387 19.0493 25.2147 19.3867 25.3988 19.7852C25.6748 20.3374 25.4294 20.9507 24.9387 20.9814L21.8712 20.9814C21.0736 21.043 20.4601 20.7363 19.908 20.1841C19.4785 19.7544 19.0797 19.2944 18.681 18.8345C18.5276 18.6504 18.3436 18.4663 18.1288 18.3438C17.6994 18.0674 17.3313 18.1597 17.1166 18.5889C16.8712 19.0493 16.8098 19.54 16.7791 20.0308C16.7485 20.7671 16.5338 20.9507 15.7975 20.9814C14.2331 21.043 12.7607 20.8281 11.411 20.0308C10.2147 19.3252 9.26379 18.374 8.46625 17.27C6.87115 15.1226 5.67484 12.7607 4.57056 10.3374C4.32516 9.78516 4.50922 9.50928 5.12271 9.47852C6.13498 9.44775 7.11658 9.44775 8.12885 9.47852C8.52762 9.47852 8.80368 9.72412 8.95706 10.0918C9.50922 11.4111 10.1534 12.6992 10.9816 13.8652C11.1963 14.1719 11.4417 14.4785 11.7485 14.7241C12.1166 14.9692 12.362 14.8774 12.546 14.4785C12.638 14.2329 12.6994 13.957 12.7301 13.6812C12.8221 12.7607 12.8221 11.8403 12.6687 10.9204C12.5767 10.3066 12.2699 9.93848 11.6871 9.81592C11.3804 9.75439 11.4417 9.6626 11.5644 9.47852C11.8098 9.20264 12.0552 9.01855 12.5154 9.01855L15.9816 9.01855C16.5338 9.14111 16.6564 9.35596 16.7178 9.9082L16.7178 13.7729C16.7178 13.9878 16.8098 14.6318 17.2086 14.7544C17.5154 14.8467 17.7301 14.6011 17.9141 14.417C18.7423 13.5278 19.3252 12.4849 19.8773 11.4111C20.1227 10.9204 20.3068 10.4297 20.5215 9.93848C20.6748 9.57031 20.8896 9.38672 21.319 9.38672L24.6626 9.38672C24.7546 9.38672 24.8466 9.38672 24.9693 9.41699C25.5215 9.50928 25.6748 9.75439 25.5215 10.3066C25.2454 11.1655 24.7239 11.9019 24.2025 12.6074C23.6503 13.374 23.0368 14.1104 22.4846 14.9082C21.9325 15.644 21.9632 16.0122 22.6074 16.626Z" fill="#B3B3B3" fill-opacity="1.000000" fill-rule="nonzero"/>
		</g>
	</g>
</svg>
